<svg xmlns="http://www.w3.org/2000/svg" viewBox="0 0 71.64 71.48"><title>linked in icon</title><g id="e7bb449d-f5c4-419f-bfef-1b4d50205c14" data-name="Layer 2"><g id="fd563921-4a8e-49cd-b893-70a597e87976" data-name="Layer 12"><rect x="1.21" y="23.76" width="14.81" height="47.71" rx="2.37" fill="#010101"/><path d="M17.22,8.61a8.56,8.56,0,0,1-8.63,8.57,8.59,8.59,0,1,1,8.63-8.57Z" fill="#010101"/><path d="M71.64,38.85V70.49a1,1,0,0,1-1,1H57.78a1,1,0,0,1-1-1V44a8.3,8.3,0,0,0-8.4-8.3,8.37,8.37,0,0,0-8.21,8.41V70.49a1,1,0,0,1-1,1H26.36a1,1,0,0,1-1-1V24.74a1,1,0,0,1,1-1H38.93a1,1,0,0,1,1,1V30l.14,0a12.8,12.8,0,0,1,.79-1.27,14.47,14.47,0,0,1,11.9-6.22h2.59A16.31,16.31,0,0,1,71.64,38.85Z" fill="#010101"/></g></g></svg>