<svg xmlns="http://www.w3.org/2000/svg" viewBox="0 0 40.84 33.18"><title>twitter_icon</title><g id="b62177d4-e435-4bea-a0b6-0e190951f0f5" data-name="Layer 2"><g id="e7c97d9e-4d66-4fed-a2ee-4447e0bba93e" data-name="Crop Marks"><g id="b5100240-52b8-4380-9ab0-41d9c7e5f63a" data-name="twitter_icon"><path d="M40.84,3.93A17.54,17.54,0,0,1,36,5.25,8.34,8.34,0,0,0,39.7.62a16.67,16.67,0,0,1-5.31,2A8.37,8.37,0,0,0,19.91,8.37a8.42,8.42,0,0,0,.19,1.91A23.71,23.71,0,0,1,2.84,1.53,8.39,8.39,0,0,0,5.42,12.72a8.29,8.29,0,0,1-3.79-1v.1A8.41,8.41,0,0,0,8.34,20a8.16,8.16,0,0,1-2.19.28,7.59,7.59,0,0,1-1.59-.14A8.46,8.46,0,0,0,12.38,26,16.78,16.78,0,0,1,2,29.54a14.72,14.72,0,0,1-2-.12,23.49,23.49,0,0,0,12.84,3.76c15.41,0,23.83-12.76,23.83-23.82,0-.37,0-.73,0-1.09A16.67,16.67,0,0,0,40.84,3.93Z" fill="#010101"/></g></g></g></svg>