<svg xmlns="http://www.w3.org/2000/svg" viewBox="0 0 95.27 67.72"><title>handmade_logo</title><g id="b66d3fb8-304b-417d-a042-378cec8d49b1" data-name="Layer 2"><g id="ac5a7a70-c5d2-4e1f-a155-f3d64ed6af99" data-name="Crop Marks"><g id="aa3f748d-d504-46cb-a22b-6fb2877edf19" data-name="handmade_logo"><path d="M95.2,48.16H88.34v9.25h6.93V56H90V53.47h4.64V52H90V49.61H95.2ZM82.55,52.8a3,3,0,0,1-3.21,3.13H77.51V49.64h1.83A3,3,0,0,1,82.55,52.8Zm1.71,0a4.61,4.61,0,0,0-4.92-4.61H75.89v9.25h3.45A4.63,4.63,0,0,0,84.26,52.77Zm-15.33,1H65.75L67.33,50Zm-.82-5.65h-1.5l-4.08,9.32H64.2l1-2.23h4.38l.94,2.23h1.72Zm-10.9,2.69v6.63h1.62V48.16H57.1l-2.82,4.37-2.81-4.37H49.74v9.25h1.6V50.8l2.89,4.34h.05ZM44,52.8a3,3,0,0,1-3.22,3.13H38.91V49.64h1.82A3,3,0,0,1,44,52.8Zm1.7,0a4.61,4.61,0,0,0-4.92-4.61H37.28v9.25h3.45A4.63,4.63,0,0,0,45.65,52.77ZM31.19,54.56l-5-6.4H24.72v9.25h1.6V50.83l5.11,6.58h1.36V48.16h-1.6Zm-13.42-.82H14.58L16.17,50ZM17,48.09H15.44l-4.07,9.32H13l1-2.23h4.37l.94,2.23H21ZM6,53.51v3.9H7.67V48.16H6V52H1.63V48.16H0v9.25H1.63v-3.9Z" fill="#010101"/><polygon points="55.55 14.58 55.55 7.05 51.99 4.49 51.99 14.52 51.99 16.63 55.55 18.69 55.55 14.58" fill="#010101" fill-rule="evenodd"/><polygon points="49.35 15.01 49.35 2.56 45.79 0 45.79 15.06 47.65 13.98 49.35 15.01" fill="#010101" fill-rule="evenodd"/><polygon points="43.28 16.52 43.28 7.25 39.71 4.69 39.71 18.58 43.28 16.52" fill="#010101" fill-rule="evenodd"/><polygon points="35.42 16.52 33.64 15.24 33.64 17.8 33.64 17.8 33.64 33.22 33.64 34.24 34.53 34.76 46.75 41.8 47.63 42.32 48.52 41.8 57.16 36.82 59.62 35.4 61.63 34.24 61.63 23.7 61.63 18.09 61.63 13.6 58.06 11.04 58.06 16.03 58.06 20.14 58.06 23.7 58.06 32.19 47.63 38.22 37.2 32.19 37.2 27.07 37.2 17.8 35.42 16.52" fill="#010101" fill-rule="evenodd"/><path d="M47.63,21.13l3.82,2.2.54.32v9.14l2.67-1.54.9-.52V21.6l-.9-.52-3.48-2-3.55-2-3.55,2-.4.23h0l-3.06,1.77-.9.52v9.13l.9.52,2.67,1.54V23.65l.54-.32Z" fill="#010101" fill-rule="evenodd"/><path d="M75.87,63.63h-3v4h3V67H73.6V65.94h2v-.63h-2v-1h2.27Zm-7.35,3.09-1.21-3.09h-.78l1.67,4.05h.62l1.67-4.05h-.76Zm-5.14-3.09v4h.71v-4Zm-3.77.65h1.28v-.65H57.62v.65H58.9v3.37h.71ZM55.46,67,55,66.55a1.59,1.59,0,0,1-1.16.52,1.43,1.43,0,0,1,0-2.86,1.6,1.6,0,0,1,1.13.5l.45-.53a2.11,2.11,0,0,0-1.57-.62,2.08,2.08,0,0,0,0,4.16A2.06,2.06,0,0,0,55.46,67Zm-7.06-1H47l.69-1.61ZM48,63.6h-.66l-1.77,4.05h.73l.41-1h1.91l.4,1h.75Zm-5.37,1.34c0,.42-.33.68-.83.68h-1V64.27h1C42.35,64.27,42.67,64.5,42.67,64.94Zm.84,2.71-1.09-1.52a1.21,1.21,0,0,0,1-1.23c0-.78-.57-1.27-1.49-1.27h-1.8v4h.71v-1.4h.89l1,1.4Zm-6-4h-3v4h3V67H35.24V65.94h2v-.63h-2v-1h2.28Zm-6.71.65h1.27v-.65H28.82v.65h1.27v3.37h.72Zm-5.14,2.13-2.16-2.78h-.65v4h.69V64.79l2.22,2.86h.59v-4h-.69Zm-6.3-2.78v4h.7v-4Z" fill="#010101"/></g></g></g></svg>